<mxfile host="app.diagrams.net" agent="Mozilla/5.0 (Windows NT 10.0; Win64; x64) AppleWebKit/537.36 (KHTML, like Gecko) Chrome/137.0.0.0 Safari/537.36 Edg/137.0.0.0" version="27.1.4">
  <diagram name="Page-1" id="EMakrTuFHiZDtfaUqmKm">
    <mxGraphModel dx="2058" dy="1070" grid="1" gridSize="10" guides="1" tooltips="1" connect="1" arrows="1" fold="1" page="1" pageScale="1" pageWidth="850" pageHeight="1100" math="0" shadow="0">
      <root>
        <mxCell id="0" />
        <mxCell id="1" parent="0" />
        <mxCell id="Sv205pFoDf1VpwSZL2tz-41" style="edgeStyle=orthogonalEdgeStyle;rounded=0;orthogonalLoop=1;jettySize=auto;html=1;entryX=0;entryY=0.5;entryDx=0;entryDy=0;" edge="1" parent="1" source="Sv205pFoDf1VpwSZL2tz-2" target="Sv205pFoDf1VpwSZL2tz-36">
          <mxGeometry relative="1" as="geometry" />
        </mxCell>
        <mxCell id="Sv205pFoDf1VpwSZL2tz-75" style="edgeStyle=orthogonalEdgeStyle;rounded=0;orthogonalLoop=1;jettySize=auto;html=1;entryX=0.25;entryY=0;entryDx=0;entryDy=0;" edge="1" parent="1" source="Sv205pFoDf1VpwSZL2tz-2" target="Sv205pFoDf1VpwSZL2tz-4">
          <mxGeometry relative="1" as="geometry" />
        </mxCell>
        <mxCell id="Sv205pFoDf1VpwSZL2tz-2" value="Order" style="rounded=0;whiteSpace=wrap;html=1;" vertex="1" parent="1">
          <mxGeometry x="320" y="440" width="120" height="60" as="geometry" />
        </mxCell>
        <mxCell id="Sv205pFoDf1VpwSZL2tz-25" style="edgeStyle=orthogonalEdgeStyle;rounded=0;orthogonalLoop=1;jettySize=auto;html=1;" edge="1" parent="1" source="Sv205pFoDf1VpwSZL2tz-3" target="Sv205pFoDf1VpwSZL2tz-20">
          <mxGeometry relative="1" as="geometry" />
        </mxCell>
        <mxCell id="Sv205pFoDf1VpwSZL2tz-27" style="edgeStyle=orthogonalEdgeStyle;rounded=0;orthogonalLoop=1;jettySize=auto;html=1;" edge="1" parent="1" source="Sv205pFoDf1VpwSZL2tz-3" target="Sv205pFoDf1VpwSZL2tz-21">
          <mxGeometry relative="1" as="geometry" />
        </mxCell>
        <mxCell id="Sv205pFoDf1VpwSZL2tz-28" style="edgeStyle=orthogonalEdgeStyle;rounded=0;orthogonalLoop=1;jettySize=auto;html=1;" edge="1" parent="1" source="Sv205pFoDf1VpwSZL2tz-3" target="Sv205pFoDf1VpwSZL2tz-23">
          <mxGeometry relative="1" as="geometry" />
        </mxCell>
        <mxCell id="Sv205pFoDf1VpwSZL2tz-30" style="edgeStyle=orthogonalEdgeStyle;rounded=0;orthogonalLoop=1;jettySize=auto;html=1;entryX=1;entryY=0.5;entryDx=0;entryDy=0;" edge="1" parent="1" source="Sv205pFoDf1VpwSZL2tz-3" target="Sv205pFoDf1VpwSZL2tz-24">
          <mxGeometry relative="1" as="geometry" />
        </mxCell>
        <mxCell id="Sv205pFoDf1VpwSZL2tz-3" value="Product" style="rounded=0;whiteSpace=wrap;html=1;" vertex="1" parent="1">
          <mxGeometry x="320" y="250" width="120" height="60" as="geometry" />
        </mxCell>
        <mxCell id="Sv205pFoDf1VpwSZL2tz-49" style="edgeStyle=orthogonalEdgeStyle;rounded=0;orthogonalLoop=1;jettySize=auto;html=1;" edge="1" parent="1" source="Sv205pFoDf1VpwSZL2tz-4" target="Sv205pFoDf1VpwSZL2tz-42">
          <mxGeometry relative="1" as="geometry" />
        </mxCell>
        <mxCell id="Sv205pFoDf1VpwSZL2tz-50" style="edgeStyle=orthogonalEdgeStyle;rounded=0;orthogonalLoop=1;jettySize=auto;html=1;entryX=0.5;entryY=0;entryDx=0;entryDy=0;" edge="1" parent="1" source="Sv205pFoDf1VpwSZL2tz-4" target="Sv205pFoDf1VpwSZL2tz-43">
          <mxGeometry relative="1" as="geometry" />
        </mxCell>
        <mxCell id="Sv205pFoDf1VpwSZL2tz-53" style="edgeStyle=orthogonalEdgeStyle;rounded=0;orthogonalLoop=1;jettySize=auto;html=1;entryX=1;entryY=0;entryDx=0;entryDy=0;" edge="1" parent="1" source="Sv205pFoDf1VpwSZL2tz-4" target="Sv205pFoDf1VpwSZL2tz-46">
          <mxGeometry relative="1" as="geometry" />
        </mxCell>
        <mxCell id="Sv205pFoDf1VpwSZL2tz-74" style="edgeStyle=orthogonalEdgeStyle;rounded=0;orthogonalLoop=1;jettySize=auto;html=1;entryX=0.5;entryY=0;entryDx=0;entryDy=0;" edge="1" parent="1" source="Sv205pFoDf1VpwSZL2tz-4" target="Sv205pFoDf1VpwSZL2tz-5">
          <mxGeometry relative="1" as="geometry" />
        </mxCell>
        <mxCell id="Sv205pFoDf1VpwSZL2tz-4" value="Orderitem" style="rounded=0;whiteSpace=wrap;html=1;" vertex="1" parent="1">
          <mxGeometry x="340" y="570" width="120" height="60" as="geometry" />
        </mxCell>
        <mxCell id="Sv205pFoDf1VpwSZL2tz-60" style="edgeStyle=orthogonalEdgeStyle;rounded=0;orthogonalLoop=1;jettySize=auto;html=1;" edge="1" parent="1" source="Sv205pFoDf1VpwSZL2tz-5" target="Sv205pFoDf1VpwSZL2tz-54">
          <mxGeometry relative="1" as="geometry" />
        </mxCell>
        <mxCell id="Sv205pFoDf1VpwSZL2tz-61" style="edgeStyle=orthogonalEdgeStyle;rounded=0;orthogonalLoop=1;jettySize=auto;html=1;entryX=0.5;entryY=0;entryDx=0;entryDy=0;" edge="1" parent="1" source="Sv205pFoDf1VpwSZL2tz-5" target="Sv205pFoDf1VpwSZL2tz-55">
          <mxGeometry relative="1" as="geometry" />
        </mxCell>
        <mxCell id="Sv205pFoDf1VpwSZL2tz-62" style="edgeStyle=orthogonalEdgeStyle;rounded=0;orthogonalLoop=1;jettySize=auto;html=1;" edge="1" parent="1" source="Sv205pFoDf1VpwSZL2tz-5" target="Sv205pFoDf1VpwSZL2tz-57">
          <mxGeometry relative="1" as="geometry" />
        </mxCell>
        <mxCell id="Sv205pFoDf1VpwSZL2tz-63" style="edgeStyle=orthogonalEdgeStyle;rounded=0;orthogonalLoop=1;jettySize=auto;html=1;entryX=0;entryY=0;entryDx=0;entryDy=0;" edge="1" parent="1" source="Sv205pFoDf1VpwSZL2tz-5" target="Sv205pFoDf1VpwSZL2tz-58">
          <mxGeometry relative="1" as="geometry" />
        </mxCell>
        <mxCell id="Sv205pFoDf1VpwSZL2tz-73" style="edgeStyle=orthogonalEdgeStyle;rounded=0;orthogonalLoop=1;jettySize=auto;html=1;entryX=0.5;entryY=0;entryDx=0;entryDy=0;" edge="1" parent="1" source="Sv205pFoDf1VpwSZL2tz-5" target="Sv205pFoDf1VpwSZL2tz-6">
          <mxGeometry relative="1" as="geometry" />
        </mxCell>
        <mxCell id="Sv205pFoDf1VpwSZL2tz-5" value="Payment" style="rounded=0;whiteSpace=wrap;html=1;" vertex="1" parent="1">
          <mxGeometry x="340" y="810" width="120" height="60" as="geometry" />
        </mxCell>
        <mxCell id="Sv205pFoDf1VpwSZL2tz-71" style="edgeStyle=orthogonalEdgeStyle;rounded=0;orthogonalLoop=1;jettySize=auto;html=1;" edge="1" parent="1" source="Sv205pFoDf1VpwSZL2tz-6" target="Sv205pFoDf1VpwSZL2tz-64">
          <mxGeometry relative="1" as="geometry" />
        </mxCell>
        <mxCell id="Sv205pFoDf1VpwSZL2tz-72" style="edgeStyle=orthogonalEdgeStyle;rounded=0;orthogonalLoop=1;jettySize=auto;html=1;entryX=0.5;entryY=0;entryDx=0;entryDy=0;" edge="1" parent="1" source="Sv205pFoDf1VpwSZL2tz-6" target="Sv205pFoDf1VpwSZL2tz-68">
          <mxGeometry relative="1" as="geometry" />
        </mxCell>
        <mxCell id="Sv205pFoDf1VpwSZL2tz-76" style="edgeStyle=orthogonalEdgeStyle;rounded=0;orthogonalLoop=1;jettySize=auto;html=1;" edge="1" parent="1" source="Sv205pFoDf1VpwSZL2tz-6" target="Sv205pFoDf1VpwSZL2tz-65">
          <mxGeometry relative="1" as="geometry" />
        </mxCell>
        <mxCell id="Sv205pFoDf1VpwSZL2tz-77" style="edgeStyle=orthogonalEdgeStyle;rounded=0;orthogonalLoop=1;jettySize=auto;html=1;" edge="1" parent="1" source="Sv205pFoDf1VpwSZL2tz-6" target="Sv205pFoDf1VpwSZL2tz-67">
          <mxGeometry relative="1" as="geometry" />
        </mxCell>
        <mxCell id="Sv205pFoDf1VpwSZL2tz-79" style="edgeStyle=orthogonalEdgeStyle;rounded=0;orthogonalLoop=1;jettySize=auto;html=1;entryX=1;entryY=0.5;entryDx=0;entryDy=0;" edge="1" parent="1" source="Sv205pFoDf1VpwSZL2tz-6" target="Sv205pFoDf1VpwSZL2tz-66">
          <mxGeometry relative="1" as="geometry" />
        </mxCell>
        <mxCell id="Sv205pFoDf1VpwSZL2tz-80" style="edgeStyle=orthogonalEdgeStyle;rounded=0;orthogonalLoop=1;jettySize=auto;html=1;entryX=0.5;entryY=0;entryDx=0;entryDy=0;" edge="1" parent="1" source="Sv205pFoDf1VpwSZL2tz-6" target="Sv205pFoDf1VpwSZL2tz-70">
          <mxGeometry relative="1" as="geometry" />
        </mxCell>
        <mxCell id="Sv205pFoDf1VpwSZL2tz-6" value="Shipping" style="rounded=0;whiteSpace=wrap;html=1;" vertex="1" parent="1">
          <mxGeometry x="340" y="970" width="120" height="60" as="geometry" />
        </mxCell>
        <mxCell id="Sv205pFoDf1VpwSZL2tz-8" value="&lt;b&gt;&lt;u&gt;UserID&lt;/u&gt;&lt;/b&gt;" style="ellipse;whiteSpace=wrap;html=1;" vertex="1" parent="1">
          <mxGeometry x="160" y="40" width="100" height="60" as="geometry" />
        </mxCell>
        <mxCell id="Sv205pFoDf1VpwSZL2tz-9" value="name" style="ellipse;whiteSpace=wrap;html=1;" vertex="1" parent="1">
          <mxGeometry x="520" y="10" width="80" height="60" as="geometry" />
        </mxCell>
        <mxCell id="Sv205pFoDf1VpwSZL2tz-10" value="phone" style="ellipse;whiteSpace=wrap;html=1;" vertex="1" parent="1">
          <mxGeometry x="460" y="160" width="120" height="80" as="geometry" />
        </mxCell>
        <mxCell id="Sv205pFoDf1VpwSZL2tz-11" value="email" style="ellipse;whiteSpace=wrap;html=1;" vertex="1" parent="1">
          <mxGeometry x="210" y="140" width="120" height="80" as="geometry" />
        </mxCell>
        <mxCell id="Sv205pFoDf1VpwSZL2tz-14" style="edgeStyle=orthogonalEdgeStyle;rounded=0;orthogonalLoop=1;jettySize=auto;html=1;entryX=0.5;entryY=0;entryDx=0;entryDy=0;" edge="1" parent="1" source="Sv205pFoDf1VpwSZL2tz-12" target="Sv205pFoDf1VpwSZL2tz-3">
          <mxGeometry relative="1" as="geometry" />
        </mxCell>
        <mxCell id="Sv205pFoDf1VpwSZL2tz-15" style="edgeStyle=orthogonalEdgeStyle;rounded=0;orthogonalLoop=1;jettySize=auto;html=1;" edge="1" parent="1" source="Sv205pFoDf1VpwSZL2tz-12" target="Sv205pFoDf1VpwSZL2tz-8">
          <mxGeometry relative="1" as="geometry" />
        </mxCell>
        <mxCell id="Sv205pFoDf1VpwSZL2tz-16" style="edgeStyle=orthogonalEdgeStyle;rounded=0;orthogonalLoop=1;jettySize=auto;html=1;" edge="1" parent="1" source="Sv205pFoDf1VpwSZL2tz-12" target="Sv205pFoDf1VpwSZL2tz-9">
          <mxGeometry relative="1" as="geometry" />
        </mxCell>
        <mxCell id="Sv205pFoDf1VpwSZL2tz-19" style="edgeStyle=orthogonalEdgeStyle;rounded=0;orthogonalLoop=1;jettySize=auto;html=1;" edge="1" parent="1" source="Sv205pFoDf1VpwSZL2tz-12" target="Sv205pFoDf1VpwSZL2tz-13">
          <mxGeometry relative="1" as="geometry" />
        </mxCell>
        <mxCell id="Sv205pFoDf1VpwSZL2tz-12" value="User" style="rounded=0;whiteSpace=wrap;html=1;" vertex="1" parent="1">
          <mxGeometry x="340" y="50" width="100" height="40" as="geometry" />
        </mxCell>
        <mxCell id="Sv205pFoDf1VpwSZL2tz-13" value="address" style="ellipse;whiteSpace=wrap;html=1;" vertex="1" parent="1">
          <mxGeometry x="570" y="80" width="120" height="80" as="geometry" />
        </mxCell>
        <mxCell id="Sv205pFoDf1VpwSZL2tz-17" style="edgeStyle=orthogonalEdgeStyle;rounded=0;orthogonalLoop=1;jettySize=auto;html=1;entryX=0.523;entryY=0.058;entryDx=0;entryDy=0;entryPerimeter=0;" edge="1" parent="1" source="Sv205pFoDf1VpwSZL2tz-12" target="Sv205pFoDf1VpwSZL2tz-11">
          <mxGeometry relative="1" as="geometry" />
        </mxCell>
        <mxCell id="Sv205pFoDf1VpwSZL2tz-18" style="edgeStyle=orthogonalEdgeStyle;rounded=0;orthogonalLoop=1;jettySize=auto;html=1;entryX=0.307;entryY=0.048;entryDx=0;entryDy=0;entryPerimeter=0;" edge="1" parent="1" source="Sv205pFoDf1VpwSZL2tz-12" target="Sv205pFoDf1VpwSZL2tz-10">
          <mxGeometry relative="1" as="geometry" />
        </mxCell>
        <mxCell id="Sv205pFoDf1VpwSZL2tz-20" value="&lt;b&gt;&lt;u&gt;ProductID&lt;/u&gt;&lt;/b&gt;" style="ellipse;whiteSpace=wrap;html=1;" vertex="1" parent="1">
          <mxGeometry x="150" y="260" width="120" height="80" as="geometry" />
        </mxCell>
        <mxCell id="Sv205pFoDf1VpwSZL2tz-21" value="name" style="ellipse;whiteSpace=wrap;html=1;" vertex="1" parent="1">
          <mxGeometry x="540" y="330" width="120" height="80" as="geometry" />
        </mxCell>
        <mxCell id="Sv205pFoDf1VpwSZL2tz-22" value="Desc" style="ellipse;whiteSpace=wrap;html=1;" vertex="1" parent="1">
          <mxGeometry x="130" y="350" width="120" height="80" as="geometry" />
        </mxCell>
        <mxCell id="Sv205pFoDf1VpwSZL2tz-23" value="Price" style="ellipse;whiteSpace=wrap;html=1;" vertex="1" parent="1">
          <mxGeometry x="660" y="240" width="120" height="80" as="geometry" />
        </mxCell>
        <mxCell id="Sv205pFoDf1VpwSZL2tz-24" value="Qty" style="ellipse;whiteSpace=wrap;html=1;" vertex="1" parent="1">
          <mxGeometry x="20" y="280" width="120" height="80" as="geometry" />
        </mxCell>
        <mxCell id="Sv205pFoDf1VpwSZL2tz-26" style="edgeStyle=orthogonalEdgeStyle;rounded=0;orthogonalLoop=1;jettySize=auto;html=1;entryX=1.003;entryY=0.576;entryDx=0;entryDy=0;entryPerimeter=0;" edge="1" parent="1" source="Sv205pFoDf1VpwSZL2tz-3" target="Sv205pFoDf1VpwSZL2tz-22">
          <mxGeometry relative="1" as="geometry" />
        </mxCell>
        <mxCell id="Sv205pFoDf1VpwSZL2tz-29" style="edgeStyle=orthogonalEdgeStyle;rounded=0;orthogonalLoop=1;jettySize=auto;html=1;entryX=0.547;entryY=0.05;entryDx=0;entryDy=0;entryPerimeter=0;" edge="1" parent="1" source="Sv205pFoDf1VpwSZL2tz-3" target="Sv205pFoDf1VpwSZL2tz-2">
          <mxGeometry relative="1" as="geometry" />
        </mxCell>
        <mxCell id="Sv205pFoDf1VpwSZL2tz-31" value="&lt;b&gt;&lt;u&gt;OrderID&lt;/u&gt;&lt;/b&gt;" style="ellipse;whiteSpace=wrap;html=1;" vertex="1" parent="1">
          <mxGeometry x="120" y="470" width="120" height="80" as="geometry" />
        </mxCell>
        <mxCell id="Sv205pFoDf1VpwSZL2tz-39" style="edgeStyle=orthogonalEdgeStyle;rounded=0;orthogonalLoop=1;jettySize=auto;html=1;" edge="1" parent="1" source="Sv205pFoDf1VpwSZL2tz-33" target="Sv205pFoDf1VpwSZL2tz-2">
          <mxGeometry relative="1" as="geometry" />
        </mxCell>
        <mxCell id="Sv205pFoDf1VpwSZL2tz-33" value="&lt;b&gt;&lt;u&gt;UserID&lt;/u&gt;&lt;/b&gt;" style="ellipse;whiteSpace=wrap;html=1;" vertex="1" parent="1">
          <mxGeometry x="560" y="480" width="120" height="80" as="geometry" />
        </mxCell>
        <mxCell id="Sv205pFoDf1VpwSZL2tz-40" style="edgeStyle=orthogonalEdgeStyle;rounded=0;orthogonalLoop=1;jettySize=auto;html=1;entryX=1;entryY=0.5;entryDx=0;entryDy=0;" edge="1" parent="1" source="Sv205pFoDf1VpwSZL2tz-34" target="Sv205pFoDf1VpwSZL2tz-2">
          <mxGeometry relative="1" as="geometry" />
        </mxCell>
        <mxCell id="Sv205pFoDf1VpwSZL2tz-34" value="Order_date" style="ellipse;whiteSpace=wrap;html=1;" vertex="1" parent="1">
          <mxGeometry x="670" y="560" width="120" height="80" as="geometry" />
        </mxCell>
        <mxCell id="Sv205pFoDf1VpwSZL2tz-38" style="edgeStyle=orthogonalEdgeStyle;rounded=0;orthogonalLoop=1;jettySize=auto;html=1;entryX=0;entryY=0.25;entryDx=0;entryDy=0;" edge="1" parent="1" source="Sv205pFoDf1VpwSZL2tz-35" target="Sv205pFoDf1VpwSZL2tz-2">
          <mxGeometry relative="1" as="geometry" />
        </mxCell>
        <mxCell id="Sv205pFoDf1VpwSZL2tz-35" value="Status" style="ellipse;whiteSpace=wrap;html=1;" vertex="1" parent="1">
          <mxGeometry x="30" y="580" width="120" height="80" as="geometry" />
        </mxCell>
        <mxCell id="Sv205pFoDf1VpwSZL2tz-36" value="Amount" style="ellipse;whiteSpace=wrap;html=1;" vertex="1" parent="1">
          <mxGeometry x="680" y="410" width="120" height="80" as="geometry" />
        </mxCell>
        <mxCell id="Sv205pFoDf1VpwSZL2tz-37" style="edgeStyle=orthogonalEdgeStyle;rounded=0;orthogonalLoop=1;jettySize=auto;html=1;entryX=0.093;entryY=0.519;entryDx=0;entryDy=0;entryPerimeter=0;" edge="1" parent="1" source="Sv205pFoDf1VpwSZL2tz-31" target="Sv205pFoDf1VpwSZL2tz-2">
          <mxGeometry relative="1" as="geometry" />
        </mxCell>
        <mxCell id="Sv205pFoDf1VpwSZL2tz-42" value="&lt;b&gt;&lt;u&gt;OrderIDItem&lt;/u&gt;&lt;/b&gt;" style="ellipse;whiteSpace=wrap;html=1;" vertex="1" parent="1">
          <mxGeometry x="190" y="700" width="120" height="80" as="geometry" />
        </mxCell>
        <mxCell id="Sv205pFoDf1VpwSZL2tz-43" value="&lt;b&gt;&lt;u&gt;OrderID&lt;/u&gt;&lt;/b&gt;" style="ellipse;whiteSpace=wrap;html=1;" vertex="1" parent="1">
          <mxGeometry x="520" y="630" width="120" height="80" as="geometry" />
        </mxCell>
        <mxCell id="Sv205pFoDf1VpwSZL2tz-45" value="&lt;b&gt;&lt;u&gt;ProductID&lt;/u&gt;&lt;/b&gt;" style="ellipse;whiteSpace=wrap;html=1;" vertex="1" parent="1">
          <mxGeometry x="640" y="710" width="120" height="80" as="geometry" />
        </mxCell>
        <mxCell id="Sv205pFoDf1VpwSZL2tz-46" value="Qry" style="ellipse;whiteSpace=wrap;html=1;" vertex="1" parent="1">
          <mxGeometry x="70" y="730" width="120" height="80" as="geometry" />
        </mxCell>
        <mxCell id="Sv205pFoDf1VpwSZL2tz-81" value="" style="edgeStyle=orthogonalEdgeStyle;rounded=0;orthogonalLoop=1;jettySize=auto;html=1;" edge="1" parent="1" source="Sv205pFoDf1VpwSZL2tz-48" target="Sv205pFoDf1VpwSZL2tz-43">
          <mxGeometry relative="1" as="geometry" />
        </mxCell>
        <mxCell id="Sv205pFoDf1VpwSZL2tz-48" value="Price" style="ellipse;whiteSpace=wrap;html=1;" vertex="1" parent="1">
          <mxGeometry x="520" y="740" width="120" height="80" as="geometry" />
        </mxCell>
        <mxCell id="Sv205pFoDf1VpwSZL2tz-51" style="edgeStyle=orthogonalEdgeStyle;rounded=0;orthogonalLoop=1;jettySize=auto;html=1;entryX=0.36;entryY=0.086;entryDx=0;entryDy=0;entryPerimeter=0;" edge="1" parent="1" source="Sv205pFoDf1VpwSZL2tz-4" target="Sv205pFoDf1VpwSZL2tz-45">
          <mxGeometry relative="1" as="geometry" />
        </mxCell>
        <mxCell id="Sv205pFoDf1VpwSZL2tz-52" style="edgeStyle=orthogonalEdgeStyle;rounded=0;orthogonalLoop=1;jettySize=auto;html=1;entryX=0.405;entryY=0.121;entryDx=0;entryDy=0;entryPerimeter=0;" edge="1" parent="1" source="Sv205pFoDf1VpwSZL2tz-4" target="Sv205pFoDf1VpwSZL2tz-48">
          <mxGeometry relative="1" as="geometry" />
        </mxCell>
        <mxCell id="Sv205pFoDf1VpwSZL2tz-54" value="&lt;b&gt;&lt;u&gt;PaymentID&lt;/u&gt;&lt;/b&gt;" style="ellipse;whiteSpace=wrap;html=1;" vertex="1" parent="1">
          <mxGeometry x="20" y="900" width="120" height="80" as="geometry" />
        </mxCell>
        <mxCell id="Sv205pFoDf1VpwSZL2tz-55" value="&lt;b&gt;&lt;u&gt;OrderID&lt;/u&gt;&lt;/b&gt;" style="ellipse;whiteSpace=wrap;html=1;" vertex="1" parent="1">
          <mxGeometry x="510" y="910" width="120" height="80" as="geometry" />
        </mxCell>
        <mxCell id="Sv205pFoDf1VpwSZL2tz-59" style="edgeStyle=orthogonalEdgeStyle;rounded=0;orthogonalLoop=1;jettySize=auto;html=1;entryX=0;entryY=0.75;entryDx=0;entryDy=0;" edge="1" parent="1" source="Sv205pFoDf1VpwSZL2tz-56" target="Sv205pFoDf1VpwSZL2tz-5">
          <mxGeometry relative="1" as="geometry" />
        </mxCell>
        <mxCell id="Sv205pFoDf1VpwSZL2tz-56" value="PaymentDate" style="ellipse;whiteSpace=wrap;html=1;" vertex="1" parent="1">
          <mxGeometry x="160" y="840" width="120" height="80" as="geometry" />
        </mxCell>
        <mxCell id="Sv205pFoDf1VpwSZL2tz-57" value="PaymentStatus" style="ellipse;whiteSpace=wrap;html=1;" vertex="1" parent="1">
          <mxGeometry x="720" y="830" width="120" height="80" as="geometry" />
        </mxCell>
        <mxCell id="Sv205pFoDf1VpwSZL2tz-58" value="Amount" style="ellipse;whiteSpace=wrap;html=1;" vertex="1" parent="1">
          <mxGeometry x="680" y="940" width="80" height="50" as="geometry" />
        </mxCell>
        <mxCell id="Sv205pFoDf1VpwSZL2tz-64" value="&lt;b&gt;&lt;u&gt;ShippingID&lt;/u&gt;&lt;/b&gt;" style="ellipse;whiteSpace=wrap;html=1;" vertex="1" parent="1">
          <mxGeometry x="200" y="940" width="70" height="50" as="geometry" />
        </mxCell>
        <mxCell id="Sv205pFoDf1VpwSZL2tz-65" value="&lt;b&gt;&lt;u&gt;OrderID&lt;/u&gt;&lt;/b&gt;" style="ellipse;whiteSpace=wrap;html=1;" vertex="1" parent="1">
          <mxGeometry x="500" y="1010" width="100" height="65" as="geometry" />
        </mxCell>
        <mxCell id="Sv205pFoDf1VpwSZL2tz-66" value="ShippingAddress" style="ellipse;whiteSpace=wrap;html=1;" vertex="1" parent="1">
          <mxGeometry x="155" y="1022.5" width="70" height="40" as="geometry" />
        </mxCell>
        <mxCell id="Sv205pFoDf1VpwSZL2tz-67" value="ShippingDate" style="ellipse;whiteSpace=wrap;html=1;" vertex="1" parent="1">
          <mxGeometry x="640" y="1030" width="60" height="50" as="geometry" />
        </mxCell>
        <mxCell id="Sv205pFoDf1VpwSZL2tz-68" value="DelieveryDate" style="ellipse;whiteSpace=wrap;html=1;" vertex="1" parent="1">
          <mxGeometry x="270" y="910" width="90" height="50" as="geometry" />
        </mxCell>
        <mxCell id="Sv205pFoDf1VpwSZL2tz-69" value="TrackingNo" style="ellipse;whiteSpace=wrap;html=1;" vertex="1" parent="1">
          <mxGeometry x="730" y="1040" width="60" height="40" as="geometry" />
        </mxCell>
        <mxCell id="Sv205pFoDf1VpwSZL2tz-70" value="ShippingStatus" style="ellipse;whiteSpace=wrap;html=1;" vertex="1" parent="1">
          <mxGeometry x="30" y="1015" width="80" height="60" as="geometry" />
        </mxCell>
        <mxCell id="Sv205pFoDf1VpwSZL2tz-78" style="edgeStyle=orthogonalEdgeStyle;rounded=0;orthogonalLoop=1;jettySize=auto;html=1;entryX=0.571;entryY=0.293;entryDx=0;entryDy=0;entryPerimeter=0;" edge="1" parent="1" source="Sv205pFoDf1VpwSZL2tz-6" target="Sv205pFoDf1VpwSZL2tz-69">
          <mxGeometry relative="1" as="geometry" />
        </mxCell>
      </root>
    </mxGraphModel>
  </diagram>
</mxfile>
